<?xml version="1.0" encoding="UTF-8" standalone="no"?>
<!-- Created with Inkscape (http://www.inkscape.org/) -->

<svg
   width="512"
   height="512"
   viewBox="0 0 135.46666 135.46667"
   version="1.1"
   id="svg1"
   xmlns:inkscape="http://www.inkscape.org/namespaces/inkscape"
   xmlns:sodipodi="http://sodipodi.sourceforge.net/DTD/sodipodi-0.dtd"
   xmlns="http://www.w3.org/2000/svg"
   xmlns:svg="http://www.w3.org/2000/svg">
  <sodipodi:namedview
     id="namedview1"
     pagecolor="#505050"
     bordercolor="#eeeeee"
     borderopacity="1"
     inkscape:showpageshadow="0"
     inkscape:pageopacity="0"
     inkscape:pagecheckerboard="0"
     inkscape:deskcolor="#505050"
     inkscape:document-units="mm" />
  <defs
     id="defs1" />
  <g
     inkscape:label="Camada 1"
     inkscape:groupmode="layer"
     id="layer1">
    <g
       id="g12"
       style="display:inline"
       transform="matrix(0.12464743,0,0,0.12464743,136.50363,-2.7097211)">
      <g
         id="g13"
         transform="matrix(2.2967564,0,0,2.2967564,-2325.73,-16.930286)"
         style="display:inline">
        <g
           id="g15">
          <g
             id="g16" />
          <path
             id="path16"
             d="M 6.5971718,-1.6389833e-4 V -1.2282632 C 7.6398031,-1.5252628 8.49446,-2.027781 9.1636488,-2.737071 c 0.6716951,-0.7080368 1.1554162,-1.9373893 1.4536682,-3.6893106 0.300759,-1.7506681 0.451139,-4.3409554 0.451139,-7.7696084 v -47.835722 c 0,-3.876031 -0.243114,-6.838508 -0.726834,-8.887429 -0.4849743,-2.047667 -1.1754669,-3.500083 -2.070225,-4.355993 -0.8960112,-0.858416 -1.9774905,-1.436124 -3.2431847,-1.734377 v -1.233112 h 9.9501107 l 30.958129,50.632781 27.945525,-45.489802 0.110278,-0.220556 3.017616,-4.922423 h 9.168137 v 1.233112 c -1.19301,0.298253 -2.255692,0.875961 -3.188045,1.734377 -0.929847,0.85591 -1.636631,2.308326 -2.120351,4.355993 -0.484974,2.048921 -0.726835,5.011398 -0.726835,8.887429 v 47.835722 c 0,3.428653 0.147874,6.0189403 0.446126,7.7696084 0.297,1.7519213 0.779467,2.9812738 1.448656,3.6893106 0.671695,0.70929 1.530112,1.2118082 2.576502,1.5088078 V -1.6389833e-4 H 69.410693 V -1.2282632 c 1.042631,-0.2969996 1.899794,-0.7995178 2.57149,-1.5088078 0.671695,-0.7080368 1.155416,-1.9373893 1.453668,-3.6893106 0.297,-1.7506681 0.446126,-4.3409554 0.446126,-7.7696084 V -69.97175 L 43.926379,-21.238763 H 42.362432 L 13.078529,-69.300055 v 53.093993 c 0,3.873525 0.278202,6.8360015 0.837112,8.8874286 0.557658,2.0489209 1.339631,3.5025894 2.345921,4.3610058 1.005036,0.8559101 2.180503,1.4323648 3.523893,1.7293644 v 1.22809930167 z m 0,0"
             style="fill:#545454;fill-opacity:1;fill-rule:nonzero;stroke:none"
             aria-label="M"
             transform="matrix(3.1171135,0,0,3.1171135,536.49055,354.39114)" />
        </g>
        <g
           id="g17">
          <g
             id="g18" />
          <path
             id="path18"
             d="m 46.607676,1.1176381 c -8.19819,0 -15.371292,-1.56394692 -21.519308,-4.6918407 -6.145509,-3.1304001 -10.93259,-7.5841404 -14.361243,-13.3587134 -3.4261467,-5.774573 -5.1379668,-12.574233 -5.1379668,-20.401487 0,-6.258293 1.117821,-11.957677 3.3534631,-17.09815 2.2356417,-5.142979 5.3459917,-9.539073 9.3335547,-13.188283 3.98631,-3.651716 8.66186,-6.466319 14.025396,-8.441303 5.366042,-1.974984 11.179463,-2.962476 17.43901,-2.962476 3.64921,0 7.16809,0.373442 10.556642,1.117821 3.391058,0.745631 6.353534,1.566453 8.887429,2.461211 2.536401,0.892252 4.250727,1.601542 5.142979,2.125364 l 0.446126,11.624336 -0.892252,0.220557 c -2.085262,-4.393588 -5.513915,-8.045304 -10.285958,-10.952641 -4.769537,-2.907338 -10.990236,-4.361006 -18.662097,-4.361006 -5.888611,0 -11.292248,1.305795 -16.210912,3.91488 -4.916156,2.606578 -8.882416,6.518951 -11.900031,11.734614 -3.017616,5.216916 -4.565272,11.737121 -4.641715,19.559362 0,5.066536 0.763176,10.022794 2.290782,14.86752 1.530111,4.842221 3.877285,9.201973 7.042773,13.078005 3.167995,3.8735257 7.079116,6.966331 11.734615,9.2784159 4.658005,2.3095787 10.116781,3.4637414 16.376328,3.4637414 5.814675,0 11.105527,-1.3960231 15.875064,-4.1905757 4.768283,-2.7970588 8.307215,-7.3247356 10.616793,-13.5842826 l 1.117821,0.115291 -1.789516,12.962714 c -1.563947,1.0426312 -3.893576,2.0877688 -6.987634,3.1329064 -3.091553,1.0426313 -6.556547,1.89854131 -10.396237,2.56647697 C 54.224398,0.78179051 50.407265,1.1176381 46.607676,1.1176381 Z m 0,0"
             style="fill:#545454;fill-opacity:1;fill-rule:nonzero;stroke:none"
             aria-label="C"
             transform="matrix(3.1171135,0,0,3.1171135,751.64827,420.25838)" />
        </g>
        <g
           id="g19">
          <g
             id="g20" />
          <path
             id="path20"
             d="m 24.481424,1.558123 c -2.674681,0 -5.015027,-1.00300555 -7.016048,-3.0040265 -2.003516,-2.0010209 -3.004027,-4.4137232 -3.004027,-7.2356118 0,-2.8144037 1.000511,-5.2221157 3.004027,-7.2256317 2.001021,-2.001021 4.341367,-3.004026 7.016048,-3.004026 2.667196,0 4.965127,1.003005 6.896287,3.004026 1.928664,2.003516 2.894244,4.411228 2.894244,7.2256317 0,2.8218886 -0.96558,5.2345909 -2.894244,7.2356118 -1.93116,2.00102095 -4.229091,3.0040265 -6.896287,3.0040265 z m 0,0"
             style="fill:#ff3131;fill-opacity:1;fill-rule:nonzero;stroke:none"
             aria-label="."
             transform="matrix(1.5656071,0,0,1.5656071,751.64827,102.52544)" />
        </g>
        <g
           id="g21">
          <g
             id="g22" />
          <path
             id="path22"
             d="m 12.296384,0.78215923 c -1.34339,0 -2.5188569,-0.50377136 -3.5238933,-1.50880775 C 7.7662012,-1.7316849 7.263683,-2.9434931 7.263683,-4.36082 c 0,-1.4135674 0.5025182,-2.6228693 1.5088077,-3.6291588 1.0050364,-1.0050364 2.1805033,-1.5088078 3.5238933,-1.5088078 1.339631,0 2.493793,0.5037714 3.463741,1.5088078 0.968695,1.0062895 1.453669,2.2155914 1.453669,3.6291588 0,1.4173269 -0.484974,2.6291351 -1.453669,3.63417148 -0.969948,1.00503639 -2.12411,1.50880775 -3.463741,1.50880775 z m 0,0"
             style="fill:#ff3131;fill-opacity:1;fill-rule:nonzero;stroke:none"
             aria-label="."
             transform="matrix(3.1171135,0,0,3.1171135,531.44812,99.436921)" />
        </g>
      </g>
    </g>
  </g>
</svg>
